<?xml version="1.0" standalone="no"?>
<!DOCTYPE svg PUBLIC "-//W3C//DTD SVG 20010904//EN"
 "http://www.w3.org/TR/2001/REC-SVG-20010904/DTD/svg10.dtd">
<svg version="1.0" xmlns="http://www.w3.org/2000/svg"
 width="500.000000pt" height="500.000000pt" viewBox="0 0 500.000000 500.000000"
 preserveAspectRatio="xMidYMid meet">

<g transform="translate(0.000000,500.000000) scale(0.100000,-0.100000)"
fill="#000000" stroke="none">
<path d="M2467 4283 c-8 -10 -27 -68 -40 -129 -42 -184 -105 -316 -213 -447
-87 -106 -225 -200 -359 -244 -70 -23 -97 -27 -215 -27 -122 -1 -142 2 -208
26 -69 25 -202 102 -202 117 0 14 115 76 192 103 164 58 339 56 522 -7 81 -27
103 -31 123 -22 30 14 40 50 20 81 -18 27 -159 77 -271 97 -111 19 -293 7
-396 -26 -176 -56 -340 -165 -340 -224 0 -32 80 -108 171 -162 243 -145 541
-142 809 8 107 60 275 224 334 326 21 37 40 67 42 67 2 0 4 -151 4 -335 l0
-335 -555 0 c-516 0 -556 -1 -573 -18 -9 -9 -84 -177 -165 -371 -167 -399
-164 -384 -106 -500 34 -67 76 -108 152 -148 47 -25 62 -28 152 -28 88 0 107
3 157 27 75 35 141 104 167 174 37 98 33 113 -104 440 -69 163 -125 298 -125
300 0 2 128 4 285 4 l285 0 0 -925 0 -925 -339 0 c-295 0 -342 -2 -355 -16
-18 -18 -20 -47 -6 -75 10 -19 34 -19 1189 -19 1128 0 1179 1 1194 18 22 24
21 55 -1 75 -17 15 -56 17 -360 17 l-342 0 0 925 0 925 285 0 c157 0 285 -2
285 -5 0 -2 -57 -138 -126 -302 -118 -280 -125 -301 -122 -353 7 -105 82 -209
188 -259 48 -23 68 -26 155 -26 84 0 107 4 147 24 104 51 177 147 193 253 7
45 0 64 -141 400 -82 194 -157 361 -166 370 -17 17 -56 18 -573 18 l-555 0 0
340 c0 187 2 340 4 340 2 0 22 -30 44 -67 65 -108 182 -232 282 -300 278 -188
630 -200 887 -30 86 57 153 121 153 145 0 30 -35 67 -109 116 -233 155 -524
189 -800 92 -91 -32 -113 -50 -109 -90 5 -50 38 -59 112 -32 218 82 449 78
640 -13 34 -17 75 -40 90 -52 l27 -21 -33 -25 c-44 -33 -140 -82 -197 -99 -25
-8 -89 -18 -141 -21 -408 -25 -760 297 -841 770 -8 49 -17 71 -32 82 -28 20
-50 19 -70 -2z m-27 -2178 l0 -925 -155 0 -155 0 0 925 0 925 155 0 155 0 0
-925z m430 0 l0 -925 -155 0 -155 0 0 925 0 925 155 0 155 0 0 -925z m-1421
595 c50 -118 91 -221 91 -227 0 -10 -46 -13 -196 -13 -153 0 -195 3 -191 13
58 149 193 455 198 449 4 -4 48 -104 98 -222z m2305 -4 c53 -125 96 -230 96
-232 0 -2 -88 -4 -195 -4 -125 0 -195 4 -195 10 0 6 33 90 74 188 106 252 116
275 121 271 2 -3 47 -107 99 -233z m-2194 -366 c0 -11 -20 -40 -44 -65 -93
-93 -233 -96 -329 -6 -26 23 -57 71 -57 86 0 3 97 5 215 5 209 0 215 -1 215
-20z m2310 15 c0 -31 -64 -103 -115 -128 -99 -49 -242 -12 -295 76 -36 58 -39
57 195 57 118 0 215 -2 215 -5z"/>
<path d="M1650 800 c-11 -11 -20 -29 -20 -40 0 -11 9 -29 20 -40 20 -20 33
-20 853 -20 651 0 837 3 849 13 27 21 30 52 7 80 l-20 27 -835 0 c-821 0 -834
0 -854 -20z"/>
</g>
</svg>
