<?xml version="1.0" standalone="no"?>
<!DOCTYPE svg PUBLIC "-//W3C//DTD SVG 20010904//EN"
 "http://www.w3.org/TR/2001/REC-SVG-20010904/DTD/svg10.dtd">
<svg version="1.0" xmlns="http://www.w3.org/2000/svg"
 width="500.000000pt" height="500.000000pt" viewBox="0 0 500.000000 500.000000"
 preserveAspectRatio="xMidYMid meet">

<g transform="translate(0.000000,500.000000) scale(0.100000,-0.100000)"
fill="#000000" stroke="none">
<path d="M2472 4523 c-42 -17 -57 -138 -22 -173 28 -28 85 -27 104 3 53 80 -5
201 -82 170z"/>
<path d="M1957 4304 c-12 -13 -8 -59 9 -82 14 -20 10 -40 -51 -279 -36 -142
-68 -266 -71 -275 -3 -11 -15 -18 -30 -18 -61 0 1 -92 88 -130 113 -50 278
-23 348 57 38 43 39 71 3 75 -26 3 -28 9 -85 228 -32 124 -58 232 -58 241 0
11 10 16 37 17 20 1 65 11 100 23 63 21 135 23 176 5 15 -7 17 -2 17 37 0 38
-4 47 -22 52 -47 16 -114 7 -169 -20 -77 -40 -114 -46 -165 -29 -23 8 -49 11
-58 8 -18 -7 -21 7 -5 23 6 6 9 23 7 39 -2 24 -8 30 -33 32 -17 2 -34 0 -38
-4z m63 -395 l0 -259 -75 0 c-51 0 -75 4 -75 12 0 9 49 203 121 481 21 82 29
20 29 -234z m117 0 c34 -129 62 -240 62 -246 1 -9 -20 -13 -74 -13 l-75 0 0
251 c0 196 3 250 13 247 6 -3 40 -109 74 -239z"/>
<path d="M2460 4290 c0 -17 7 -20 40 -20 33 0 40 3 40 20 0 17 -7 20 -40 20
-33 0 -40 -3 -40 -20z"/>
<path d="M2982 4298 c-16 -16 -15 -43 3 -58 17 -14 11 -32 -10 -24 -7 3 -23 0
-35 -6 -40 -21 -106 -14 -182 21 -70 33 -115 39 -172 25 -23 -6 -26 -11 -26
-52 0 -40 2 -45 18 -38 40 18 127 16 180 -5 29 -12 73 -22 98 -23 27 -1 43 -6
41 -12 -2 -6 -30 -116 -62 -243 l-59 -233 -28 0 c-32 0 -34 -9 -13 -50 42 -81
194 -127 317 -95 95 24 142 60 162 123 7 19 4 22 -22 22 l-29 0 -70 273 -70
272 19 37 c15 29 17 41 8 57 -12 23 -49 28 -68 9z m91 -390 l65 -258 -79 0
-79 0 0 258 c0 242 3 284 20 265 4 -5 37 -124 73 -265z m-113 -8 l0 -250 -81
0 c-72 0 -80 2 -75 18 3 9 30 116 61 237 68 265 61 245 80 245 13 0 15 -32 15
-250z"/>
<path d="M2467 4243 c-4 -3 -7 -208 -7 -454 l0 -449 25 -6 c57 -14 55 -35 55
461 l0 455 -33 0 c-19 0 -37 -3 -40 -7z"/>
<path d="M1038 3459 c-12 -20 -25 -29 -43 -29 -30 0 -32 -11 -5 -28 17 -10 20
-19 14 -48 l-7 -36 29 15 c26 13 32 13 58 0 l29 -15 -6 31 c-5 24 -2 36 13 51
26 26 25 30 -5 30 -17 0 -31 9 -43 29 l-18 29 -16 -29z"/>
<path d="M3928 3459 c-12 -20 -25 -29 -43 -29 -30 0 -31 -4 -5 -30 15 -15 18
-27 13 -51 l-6 -31 29 15 c26 13 32 13 58 0 l29 -15 -7 36 c-6 29 -3 38 14 48
27 17 25 28 -5 28 -17 0 -31 9 -43 29 l-18 29 -16 -29z"/>
<path d="M2322 3288 c3 -23 5 -23 181 -26 l177 -2 0 25 0 25 -181 0 -180 0 3
-22z"/>
<path d="M2164 3232 c-6 -4 -16 -17 -23 -29 l-12 -23 371 0 c203 0 370 3 370
8 0 4 -7 18 -16 30 -15 22 -15 22 -347 22 -183 0 -337 -4 -343 -8z"/>
<path d="M777 3186 c-12 -26 -24 -35 -51 -40 -42 -8 -43 -12 -14 -36 17 -14
22 -26 20 -59 -3 -46 -2 -47 39 -26 27 14 32 14 51 0 35 -24 44 -19 40 21 -4
28 1 41 23 64 l27 28 -40 7 c-32 5 -43 12 -52 36 -18 42 -25 43 -43 5z"/>
<path d="M4184 3188 c-14 -31 -24 -38 -56 -43 l-40 -7 27 -28 c22 -23 27 -36
23 -64 -4 -40 5 -45 40 -21 19 14 24 14 51 0 41 -21 42 -20 39 26 -2 33 3 45
20 59 29 24 28 28 -13 36 -28 5 -40 14 -54 43 l-19 36 -18 -37z"/>
<path d="M1896 3128 c-9 -12 -16 -26 -16 -30 0 -5 279 -8 620 -8 531 0 620 2
620 14 0 8 -7 22 -16 30 -14 14 -82 16 -604 16 l-589 0 -15 -22z"/>
<path d="M1440 3005 l0 -65 1065 0 1065 0 0 65 0 65 -1065 0 -1065 0 0 -65z"/>
<path d="M628 2786 c-20 -42 -25 -45 -70 -51 -26 -4 -48 -10 -48 -13 0 -3 15
-22 34 -42 33 -33 34 -37 26 -80 -4 -25 -7 -46 -5 -48 1 -2 23 7 47 19 l44 21
42 -21 c23 -11 44 -21 47 -21 3 0 2 24 -1 53 -6 49 -4 54 25 81 17 17 31 33
31 37 0 4 -22 10 -49 14 -45 6 -50 10 -67 46 -9 22 -21 42 -26 45 -4 3 -18
-15 -30 -40z"/>
<path d="M4318 2786 c-20 -42 -25 -45 -70 -51 -26 -4 -48 -10 -48 -14 0 -4 14
-20 31 -37 29 -27 31 -32 25 -81 -3 -29 -4 -53 -1 -53 2 0 24 10 48 21 l43 21
43 -22 c24 -12 44 -20 46 -18 2 2 -1 23 -5 48 -8 43 -7 47 26 80 19 20 34 39
34 42 0 3 -22 9 -49 13 -45 6 -50 10 -67 46 -9 22 -21 42 -26 45 -4 3 -18 -15
-30 -40z"/>
<path d="M1622 2753 l3 -58 878 -3 877 -2 0 60 0 60 -880 0 -881 0 3 -57z"/>
<path d="M1624 2546 c-3 -7 -4 -33 -2 -57 l3 -44 168 -3 167 -2 0 60 0 60
-165 0 c-132 0 -167 -3 -171 -14z"/>
<path d="M2105 2548 c-3 -7 -4 -442 -3 -966 l3 -954 -40 7 c-167 26 -496 188
-680 334 -144 115 -328 327 -430 496 -127 210 -221 491 -241 720 -4 44 -8 87
-10 95 -1 8 -3 34 -3 58 l-1 42 -50 0 -50 0 0 -77 c1 -227 78 -530 196 -768
265 -532 758 -908 1345 -1027 101 -20 142 -23 364 -23 224 0 262 2 365 24 373
76 688 243 958 505 178 173 283 317 387 531 116 239 176 469 192 728 l6 108
-54 -3 -54 -3 -2 -65 c-9 -329 -132 -689 -331 -970 -86 -122 -309 -345 -432
-433 -163 -116 -460 -251 -601 -273 l-39 -7 0 967 0 966 -60 0 -60 0 0 -980 0
-979 -37 -8 c-49 -10 -427 -10 -475 0 l-38 8 0 979 0 980 -60 0 c-39 0 -62 -4
-65 -12z"/>
<path d="M2455 2548 c-3 -7 -4 -393 -3 -858 l3 -845 63 -3 62 -3 0 861 0 860
-60 0 c-39 0 -62 -4 -65 -12z"/>
<path d="M3050 2500 l0 -60 165 0 165 0 0 60 0 60 -165 0 -165 0 0 -60z"/>
</g>
</svg>
